<?xml version="1.0" standalone="no"?>
<!DOCTYPE svg PUBLIC "-//W3C//DTD SVG 20010904//EN"
 "http://www.w3.org/TR/2001/REC-SVG-20010904/DTD/svg10.dtd">
<svg version="1.0" xmlns="http://www.w3.org/2000/svg"
 width="400.000000pt" height="400.000000pt" viewBox="0 0 400.000000 400.000000"
 preserveAspectRatio="xMidYMid meet">

<g transform="translate(0.000000,400.000000) scale(0.100000,-0.100000)"
fill="#ffffff" stroke="none">
<path d="M780 3991 c-116 -36 -188 -141 -177 -259 2 -33 13 -74 22 -93 10 -19
201 -219 426 -445 l409 -410 0 -83 c0 -80 -2 -85 -35 -131 -50 -68 -102 -186
-120 -270 -81 -385 169 -764 559 -844 42 -9 60 -18 59 -27 -4 -25 -183 -853
-189 -871 -5 -16 -23 -18 -195 -18 -173 0 -189 1 -189 18 0 9 33 208 74 442
79 452 79 464 29 476 -24 6 -73 -18 -73 -37 0 -6 -34 -205 -75 -442 -41 -238
-77 -447 -81 -466 -3 -19 -35 -100 -71 -180 -73 -163 -82 -212 -47 -272 11
-19 38 -44 60 -56 37 -21 50 -23 249 -23 261 0 299 13 338 110 8 19 65 272
128 562 62 291 116 528 119 528 3 0 57 -237 119 -528 63 -290 120 -543 128
-562 19 -47 41 -69 88 -91 35 -16 67 -19 250 -19 199 0 212 2 249 23 22 12 49
37 60 56 35 60 26 109 -47 272 -62 137 -67 156 -95 320 -17 96 -65 373 -107
615 l-76 441 31 47 c95 140 133 352 95 531 -17 80 -70 196 -121 268 -35 49
-36 51 -32 133 l3 83 406 408 c224 225 414 423 424 442 59 117 8 274 -108 333
-106 54 -215 28 -311 -72 -60 -63 -64 -74 -40 -108 24 -35 63 -29 109 19 22
22 52 47 67 55 59 31 144 7 174 -48 8 -13 13 -45 14 -73 l0 -49 -282 -283
-283 -283 -92 92 -93 93 145 145 c114 115 145 151 145 172 0 27 -31 58 -59 58
-8 0 -122 -107 -255 -238 -205 -203 -251 -243 -306 -270 -132 -64 -268 -64
-400 0 -57 27 -108 74 -440 404 -278 276 -387 378 -420 393 -46 21 -114 26
-160 12z m128 -125 c15 -8 147 -135 295 -283 l267 -268 -93 -93 -92 -92 -283
283 -282 283 0 49 c1 28 6 60 14 73 30 56 115 79 174 48z m827 -783 c81 -43
167 -63 265 -63 151 0 275 49 385 152 l61 57 92 -92 92 -92 -76 -75 c-88 -88
-109 -119 -127 -188 l-13 -51 -49 31 c-28 17 -86 45 -130 61 -69 26 -97 31
-208 35 -112 4 -130 2 -147 -13 -24 -22 -26 -68 -4 -86 10 -8 52 -13 122 -14
131 -3 231 -33 334 -101 165 -110 258 -287 258 -491 0 -166 -56 -300 -174
-418 -152 -150 -357 -207 -560 -155 -109 28 -190 74 -272 155 -77 77 -133 172
-159 271 -19 73 -19 222 -1 292 36 135 121 259 231 337 72 51 84 74 61 110
-20 31 -58 33 -102 6 l-32 -19 -6 41 c-10 60 -44 112 -130 197 l-76 75 92 92
92 92 61 -57 c33 -31 87 -71 120 -89z m739 -1500 c15 -69 176 -1010 176 -1025
0 -17 -15 -18 -189 -18 -172 0 -190 2 -195 18 -6 18 -185 848 -189 872 -1 9
12 16 42 22 99 17 220 69 296 126 50 38 52 38 59 5z m-774 -1178 c0 -40 -54
-252 -68 -268 -14 -16 -35 -17 -215 -15 -174 3 -201 5 -210 20 -9 13 2 45 47
147 l58 131 194 0 c168 0 194 -2 194 -15z m1046 -116 c45 -102 56 -134 47
-147 -9 -15 -36 -17 -210 -20 -180 -2 -201 -1 -215 15 -14 16 -68 228 -68 268
0 13 26 15 194 15 l194 0 58 -131z"/>
<path d="M2195 2464 c-16 -9 -85 -71 -152 -137 l-123 -122 -67 67 c-81 79
-102 90 -163 90 -69 0 -126 -36 -160 -101 -17 -33 -15 -112 3 -147 22 -42 287
-301 320 -314 44 -16 114 -12 155 9 20 11 123 106 228 213 174 175 193 197
201 238 11 54 0 112 -28 152 -44 61 -148 86 -214 52z m121 -129 c8 -13 13 -32
10 -42 -3 -10 -89 -101 -190 -202 -162 -162 -188 -184 -216 -184 -28 0 -50 17
-161 130 -135 136 -146 156 -109 193 34 34 57 25 150 -65 128 -123 123 -124
304 55 153 151 179 166 212 115z"/>
<path d="M1850 3981 c-49 -16 -87 -40 -123 -80 -69 -76 -72 -88 -72 -266 0
-157 1 -161 29 -218 36 -71 99 -130 174 -165 48 -23 71 -27 142 -27 71 0 94 4
142 27 75 35 138 94 174 165 28 57 29 61 29 218 0 156 -1 161 -27 206 -30 50
-80 99 -131 126 -25 14 -61 18 -172 20 -77 1 -151 -1 -165 -6z m303 -130 c20
-12 46 -39 59 -59 21 -33 23 -49 23 -157 0 -116 -1 -122 -31 -175 -22 -38 -46
-64 -79 -85 -43 -27 -57 -30 -125 -30 -68 0 -82 3 -125 30 -33 21 -57 47 -79
85 -30 53 -31 59 -31 175 0 107 2 124 23 156 44 72 93 90 233 85 79 -2 103 -7
132 -25z"/>
</g>
</svg>
