<?xml version="1.0" standalone="no"?>
<!DOCTYPE svg PUBLIC "-//W3C//DTD SVG 20010904//EN"
 "http://www.w3.org/TR/2001/REC-SVG-20010904/DTD/svg10.dtd">
<svg version="1.0" xmlns="http://www.w3.org/2000/svg"
 width="400.000000pt" height="400.000000pt" viewBox="0 0 400.000000 400.000000"
 preserveAspectRatio="xMidYMid meet">

<g transform="translate(0.000000,400.000000) scale(0.100000,-0.100000)"
fill="#ffffff" stroke="none">
<path d="M2613 3873 c-52 -10 -53 -17 -53 -434 0 -376 1 -387 21 -413 19 -24
26 -26 95 -26 l74 0 0 -168 c0 -188 5 -202 68 -202 30 0 38 10 154 185 l123
184 371 1 c346 0 372 1 387 18 15 17 17 61 17 424 0 365 -2 407 -17 419 -13
12 -124 14 -617 15 -331 1 -611 0 -623 -3z m1135 -434 l-3 -310 -330 1 c-181
0 -343 -4 -360 -8 -23 -6 -45 -31 -98 -107 -37 -55 -72 -101 -77 -103 -6 -2
-10 34 -10 91 0 117 -4 122 -106 122 l-74 0 0 313 0 312 530 0 530 0 -2 -311z"/>
<path d="M2860 3621 c-14 -4 -31 -19 -40 -33 -13 -25 -13 -29 6 -55 l21 -28
258 -3 c285 -3 305 1 305 56 0 38 -11 51 -51 62 -38 11 -460 12 -499 1z"/>
<path d="M2860 3371 c-14 -4 -31 -19 -40 -33 -13 -25 -13 -29 6 -55 l21 -28
368 -3 c410 -3 405 -3 405 63 0 60 1 60 -384 62 -193 1 -362 -2 -376 -6z"/>
<path d="M1750 3619 c-703 -51 -1308 -520 -1530 -1187 -71 -213 -84 -297 -85
-547 0 -257 13 -345 80 -552 201 -613 708 -1058 1345 -1179 188 -35 459 -33
653 5 729 145 1285 730 1393 1465 23 154 15 459 -15 599 -48 218 -135 429
-249 604 -56 85 -84 113 -112 113 -16 0 -60 -46 -60 -63 0 -8 23 -49 51 -92
185 -284 280 -596 279 -922 -1 -231 -68 -510 -176 -724 -125 -249 -357 -499
-604 -652 -422 -260 -970 -309 -1433 -127 -520 203 -888 642 -1008 1200 -20
90 -23 135 -23 315 0 180 3 225 23 315 152 710 709 1220 1421 1301 200 23 498
-7 660 -66 25 -9 57 -17 73 -17 32 -1 67 27 67 54 0 41 -20 57 -100 82 -201
64 -436 91 -650 75z"/>
<path d="M1710 3240 c-231 -28 -377 -106 -440 -235 -23 -46 -25 -62 -25 -185
0 -74 3 -172 8 -217 l7 -83 -40 0 c-58 0 -95 -23 -127 -78 -67 -114 -6 -279
119 -321 32 -11 34 -15 55 -103 26 -107 85 -235 148 -324 l45 -63 -56 -53
c-31 -29 -67 -72 -81 -95 -20 -34 -32 -44 -61 -49 -215 -35 -358 -184 -382
-395 -13 -109 -13 -255 0 -298 11 -40 24 -51 61 -51 48 0 54 19 59 209 5 156
8 182 29 228 26 58 103 136 156 159 65 27 65 27 65 -108 l-1 -123 -40 -28
c-56 -39 -79 -81 -79 -147 0 -145 137 -232 265 -170 67 33 100 86 100 164 0
73 -25 120 -85 160 l-40 26 0 73 c0 39 3 96 6 125 l7 52 88 0 89 0 0 -38 c0
-21 6 -46 13 -55 24 -33 281 -217 302 -217 21 0 278 184 303 217 6 9 12 34 12
55 l0 38 93 -1 c75 0 89 -2 73 -12 -70 -45 -95 -70 -124 -125 -42 -78 -55
-181 -27 -212 36 -40 105 -14 105 39 0 48 24 112 54 146 79 89 175 29 196
-123 8 -59 26 -82 67 -82 13 0 32 9 44 21 47 47 -7 217 -93 294 -46 41 -47 44
-19 34 47 -16 129 -96 159 -153 25 -48 26 -61 32 -232 5 -197 10 -214 61 -214
58 0 61 13 57 230 l-3 196 -38 76 c-62 127 -173 211 -314 238 -58 12 -64 16
-87 54 -13 23 -49 65 -80 94 l-56 53 45 63 c63 89 122 217 148 324 21 88 23
92 55 103 125 42 186 207 119 321 -32 56 -69 78 -128 78 l-42 0 7 43 c3 23 9
112 13 198 5 128 3 164 -10 202 -48 142 -180 232 -390 267 -89 15 -310 20
-397 10z m386 -135 c156 -27 260 -94 284 -185 6 -23 9 -66 8 -98 -4 -53 -5
-55 -12 -24 -11 42 -42 66 -119 91 -101 33 -202 45 -382 45 -180 0 -281 -12
-382 -45 -77 -25 -108 -49 -119 -91 -7 -31 -8 -29 -12 24 -9 152 73 238 266
278 112 24 344 26 468 5z m74 -320 c36 -9 70 -22 76 -29 6 -6 31 -101 54 -211
36 -170 46 -203 67 -223 32 -30 56 -22 109 34 45 49 58 53 74 25 14 -28 12
-67 -5 -101 -16 -31 -44 -44 -87 -42 -42 3 -64 -27 -77 -104 -41 -240 -175
-451 -336 -530 -55 -27 -69 -29 -170 -29 -104 0 -114 2 -177 33 -156 77 -289
288 -329 524 -13 82 -25 99 -72 103 -58 5 -76 14 -92 45 -17 34 -19 73 -5 101
16 28 29 24 74 -25 53 -56 77 -64 109 -34 20 19 31 55 67 223 24 110 47 205
51 211 5 6 42 18 81 27 40 9 82 18 93 21 11 3 112 3 225 2 157 -3 220 -7 270
-21z m-610 -1295 l0 -50 -55 0 c-53 0 -55 1 -45 20 9 17 85 80 97 80 1 0 3
-22 3 -50z m687 13 c18 -13 37 -33 43 -43 10 -19 7 -20 -45 -20 l-55 0 0 51
c0 55 0 55 57 12z m-490 -48 c31 -8 85 -15 118 -15 33 0 87 7 118 15 32 8 60
15 62 15 3 0 5 -43 5 -95 l0 -94 -82 -62 c-46 -34 -88 -66 -93 -70 -6 -4 -51
23 -103 62 l-92 70 0 94 c0 52 2 95 5 95 2 0 30 -7 62 -15z m-409 -531 c32
-22 30 -78 -3 -100 -62 -41 -128 44 -73 96 26 24 46 25 76 4z"/>
</g>
</svg>
