<svg width="32" height="39" viewBox="0 0 32 39" fill="none" xmlns="http://www.w3.org/2000/svg">
  <path d="M26.4427 20.6611C26.426 17.5774 27.8129 15.2499 30.6202 13.5357C29.0495 11.2755 26.6766 10.0319 23.5435 9.78823C20.5775 9.55296 17.3357 11.5275 16.1493 11.5275C14.8961 11.5275 12.0219 9.87225 9.76606 9.87225C5.10395 9.94788 0.149414 13.6114 0.149414 21.0644C0.149414 23.2658 0.550456 25.5401 1.35254 27.8872C2.42198 30.9709 6.28201 38.5332 10.3091 38.4072C12.4146 38.3568 13.9018 36.9031 16.6423 36.9031C19.2992 36.9031 20.6777 38.4072 23.0255 38.4072C27.086 38.3483 30.5785 31.4751 31.5978 28.383C26.1503 25.8034 26.4427 20.8207 26.4427 20.6611ZM21.7138 6.86416C23.9947 4.14174 23.7858 1.663 23.719 0.772339C21.7054 0.889974 19.3743 2.15035 18.0459 3.70481C16.5838 5.36851 15.7232 7.42712 15.907 9.74622C18.0877 9.91427 20.0762 8.78833 21.7138 6.86416Z" fill="white" />
</svg>