<svg width="232" height="214" viewBox="0 0 232 214" fill="none" xmlns="http://www.w3.org/2000/svg">
    <path d="M228.949 2.49605C228.67 1.14368 227.348 0.272996 225.996 0.55132C224.644 0.829644 223.773 2.15158 224.051 3.50395L228.949 2.49605ZM1.21215 193.753C0.247057 194.74 0.265146 196.323 1.25255 197.288L17.3432 213.015C18.3306 213.98 19.9134 213.962 20.8785 212.974C21.8436 211.987 21.8255 210.404 20.8381 209.439L6.5353 195.46L20.5149 181.157C21.48 180.169 21.4619 178.587 20.4745 177.621C19.4871 176.656 17.9043 176.674 16.9392 177.662L1.21215 193.753ZM224.051 3.50395C230.437 34.5326 227.11 81.2658 196.406 120.497C165.762 159.652 107.47 191.806 2.97143 193L3.02857 198C108.53 196.794 168.488 164.282 200.344 123.578C232.14 82.9508 235.563 34.634 228.949 2.49605L224.051 3.50395Z" fill="black"/>
</svg>
