<svg xmlns="http://www.w3.org/2000/svg" enable-background="new 0 0 32 32" viewBox="0 0 32 32" id="yandex">
  <path fill="#F5E6FE" d="M26,32H6c-3.314,0-6-2.686-6-6V6c0-3.314,2.686-6,6-6h20c3.314,0,6,2.686,6,6v20C32,29.314,29.314,32,26,32z"></path>
  <path fill="#BE63F9" d="M12.66,13.035c0,2.397,0.956,3.694,2.387,4.409L12,24h2.022l2.775-6.131h1.454V24H20V8h-2.613C14.819,8,12.657,9.679,12.66,13.035z M18.25,16.435h-0.933c-1.524,0-2.775-0.828-2.775-3.4c0-2.663,1.365-3.581,2.775-3.581h0.933V16.435z"></path>
</svg>
