<svg width="483" height="485" viewBox="0 0 483 485" fill="none" xmlns="http://www.w3.org/2000/svg">
<path d="M305.25 8C360.725 8 398 59.5913 398 107.72C398 205.189 243.3 285 240.5 285C237.7 285 83 205.189 83 107.72C83 59.5913 120.275 8 175.75 8C207.6 8 228.425 23.7544 240.5 37.6044C252.575 23.7544 273.4 8 305.25 8Z" stroke="black" stroke-width="15" stroke-linecap="round" stroke-linejoin="round"/>
<path d="M115.5 134H178.404C178.771 134 179.109 133.799 179.284 133.476L197.964 98.9174C198.37 98.165 199.472 98.2372 199.777 99.0362L236.204 194.433C236.556 195.356 237.891 195.264 238.113 194.301L272.081 46.9876C272.316 45.9676 273.761 45.9487 274.023 46.9622L296.306 133.25C296.42 133.692 296.819 134 297.275 134H430.5" stroke="black" stroke-width="15" stroke-linecap="round"/>
<path d="M366.5 324L430 291.79C462.5 270.792 492.5 303.29 462.5 324.29C412.833 357.457 309.8 426.39 295 436.79C280.2 447.19 259.5 448.457 251 447.79C227.5 445.123 175.1 439.19 153.5 436.79C141.745 435.484 130.542 435.895 121.618 436.864C112.493 437.855 103.333 432.256 101.35 423.294L81.3761 333.03C79.9448 326.562 82.6152 319.753 88.4911 316.693C145.675 286.916 200.599 327.973 220.5 340.292C237.3 350.692 236.5 348.122 251 340.292C259.333 335.792 283.8 322.692 315 306.292C346.2 289.892 362.5 311.167 366.5 324ZM366.5 324C369.215 332.71 372.5 333.2 348.5 348C324.5 362.8 284.833 387.833 268 398.5C256.953 405.5 242.5 409.5 220.5 405.5C198.5 401.5 156.333 392.5 138 388.5" stroke="black" stroke-width="15" stroke-linecap="round"/>
<circle cx="452.5" cy="132.5" r="15" stroke="black" stroke-width="15"/>
<rect x="3" y="126" width="62" height="15" rx="7.5" fill="black"/>
<rect x="5.09117" y="310.079" width="68.1082" height="173.066" rx="14.5" transform="rotate(-12.133 5.09117 310.079)" stroke="black" stroke-width="15"/>
<rect x="34" y="327.438" width="14" height="14" rx="7" transform="rotate(-10.0311 34 327.438)" fill="black"/>
</svg>
