<svg width="490" height="385" viewBox="0 0 490 385" fill="none" xmlns="http://www.w3.org/2000/svg">
<path d="M378.643 277.631L372.662 282.156L377.187 288.138L436.859 367.019C445.188 378.031 460.867 380.205 471.879 371.875C482.89 363.545 485.064 347.866 476.734 336.855L417.062 257.973L412.538 251.991L406.556 256.516L378.643 277.631Z" stroke="black" stroke-width="15"/>
<rect x="349.203" y="249.131" width="13" height="34" transform="rotate(-37.1065 349.203 249.131)" fill="black"/>
<rect x="377.441" y="228.432" width="13" height="34" transform="rotate(-37.1065 377.441 228.432)" fill="black"/>
<path d="M305.5 257.5C361.318 257.5 406.5 212.019 406.5 156C406.5 99.9809 361.318 54.5 305.5 54.5C249.682 54.5 204.5 99.9809 204.5 156C204.5 212.019 249.682 257.5 305.5 257.5Z" stroke="black" stroke-width="15"/>
<path d="M208 156.5H237L262 113L285.5 190.5L311.5 135.5L329 190.5L352.5 156.5H404" stroke="black" stroke-width="15" stroke-linecap="round"/>
<path fill-rule="evenodd" clip-rule="evenodd" d="M15 0H0V15V297V312H15H402.721L391.203 297H30H15V282V30V15H30H428H443V30V282V297H438.307L449.824 312H458V297V15V0H443H15Z" fill="black"/>
<path d="M79.5 124V131.5H87H103.5H111V124V106H130H137.5V98.5V82V74.5H130H111V55.5V48H103.5H87H79.5V55.5V74.5H61.5H54V82V98.5V106H61.5H79.5V124Z" stroke="black" stroke-width="15" stroke-linecap="round"/>
<rect x="43" y="203" width="139" height="15" fill="black"/>
<rect x="43" y="241" width="78" height="15" fill="black"/>
<path fill-rule="evenodd" clip-rule="evenodd" d="M234.728 225L234 224.097L233.271 225H234.728ZM294.369 299H275.104L311.977 344.75L324.066 359.75H304.801H163.198H143.933L156.022 344.75L192.895 299H173.63L132.254 350.337L112.578 374.75H143.933H324.066H355.421L335.745 350.337L294.369 299Z" fill="black"/>
</svg>
