    <svg
      width="910"
      height="927"
      viewBox="0 0 910 927"
      fill="none"
      xmlns="http://www.w3.org/2000/svg"
    >
      <g filter="url(#filter0_f_78_1075)">
        <path
          d="M333.001 759.5L265.5 692C141.216 642.775 -5.16106 418.24 265.501 286.5C265.501 286.5 609.595 79.3295 670.218 117.721C670.218 117.721 814.746 342.586 1002 318L675.5 692L494 814L333.001 759.5Z"
          fill="url(#paint0_linear_78_1075)"
          fill-opacity="0.28"
        />
        <path
          d="M264.812 285.212L264.805 285.217C196.987 318.237 155.138 357.141 132.563 397.807C109.971 438.503 106.755 480.835 115.975 520.523C134.363 599.668 202.216 668.378 264.682 693.244L331.969 760.531L332.21 760.772L332.533 760.881L493.532 815.381L494.215 815.612L494.813 815.21L676.313 693.21L676.473 693.103L676.599 692.959L1003.1 318.959L1005.64 316.052L1001.81 316.554C908.82 328.764 826.292 279.04 766.86 225.992C737.168 199.49 713.307 172.216 696.867 151.564C688.649 141.239 682.288 132.574 677.984 126.493C675.833 123.452 674.195 121.058 673.097 119.426C672.548 118.61 672.133 117.985 671.857 117.564C671.719 117.354 671.615 117.195 671.546 117.089L671.469 116.97L671.451 116.941L671.446 116.934C671.445 116.933 671.445 116.932 670.218 117.721L671.445 116.932L671.271 116.661L670.998 116.489C662.962 111.4 650.506 110.506 635.233 112.505C619.884 114.513 601.365 119.491 580.932 126.517C540.055 140.572 491.292 162.904 444.472 186.41C397.642 209.922 352.713 234.631 319.494 253.461C302.884 262.876 289.199 270.822 279.667 276.415C274.9 279.212 271.172 281.42 268.635 282.929C267.366 283.684 266.395 284.264 265.741 284.656C265.414 284.851 265.166 285 265 285.1L264.812 285.212Z"
          stroke="black"
          stroke-width="2.91667"
          stroke-linecap="round"
        />
      </g>
      <defs>
        <filter
          id="filter0_f_78_1075"
          x="0.323242"
          y="0.683472"
          width="1118.33"
          height="925.916"
          filterUnits="userSpaceOnUse"
          color-interpolation-filters="sRGB"
        >
          <feFlood flood-opacity="0" result="BackgroundImageFix" />
          <feBlend
            mode="normal"
            in="SourceGraphic"
            in2="BackgroundImageFix"
            result="shape"
          />
          <feGaussianBlur
            stdDeviation="54.6875"
            result="effect1_foregroundBlur_78_1075"
          />
        </filter>
        <linearGradient
          id="paint0_linear_78_1075"
          x1="124.739"
          y1="192.942"
          x2="665.639"
          y2="192.942"
          gradientUnits="userSpaceOnUse"
        >
          <stop stop-color="white" />
          <stop offset="0.509" stop-color="#FF00DD" />
          <stop offset="1" stop-color="#2F00FF" />
        </linearGradient>
      </defs>
    </svg>