<svg
      className="steps__arrows"
      width="921"
      height="152"
      viewBox="0 0 921 152"
      fill="none"
      xmlns="http://www.w3.org/2000/svg"
    >
      <g filter="url(#filter0_d_83_992)">
        <path
          d="M908.795 142.75C908.356 143.189 907.644 143.189 907.205 142.75L900.045 135.591C899.606 135.151 899.606 134.439 900.045 134C900.484 133.56 901.197 133.56 901.636 134L908 140.364L914.364 134C914.803 133.56 915.516 133.56 915.955 134C916.394 134.439 916.394 135.151 915.955 135.591L908.795 142.75ZM408.83 142.75C408.39 143.189 407.678 143.189 407.239 142.75L400.079 135.591C399.64 135.151 399.64 134.439 400.079 134C400.519 133.56 401.231 133.56 401.67 134L408.034 140.364L414.398 134C414.838 133.56 415.55 133.56 415.989 134C416.429 134.439 416.429 135.151 415.989 135.591L408.83 142.75ZM906.875 141.955C906.875 103.765 884.651 69.0737 848.48 43.8828C812.314 18.6946 762.291 3.07959 706.983 3.07959V0.82959C762.694 0.82959 813.179 16.5546 849.766 42.0365C886.35 67.5156 909.125 102.824 909.125 141.955H906.875ZM706.983 3.07959C651.675 3.07959 601.651 18.6946 565.485 43.8828C529.315 69.0737 507.091 103.765 507.091 141.955H504.841C504.841 102.824 527.615 67.5156 564.199 42.0365C600.787 16.5546 651.272 0.82959 706.983 0.82959V3.07959ZM406.909 141.955C406.909 103.765 384.685 69.0737 348.515 43.8828C312.349 18.6946 262.325 3.07959 207.017 3.07959V0.82959C262.728 0.82959 313.213 16.5546 349.801 42.0365C386.385 67.5156 409.159 102.824 409.159 141.955H406.909ZM207.017 3.07959C151.709 3.07959 101.686 18.6946 65.5195 43.8828C29.3495 69.0737 7.12506 103.765 7.12506 141.955H4.87506C4.87506 102.824 27.6498 67.5156 64.2336 42.0365C100.821 16.5546 151.307 0.82959 207.017 0.82959V3.07959Z"
          fill="black"
        />
      </g>
      <defs>
        <filter
          id="filter0_d_83_992"
          x="0.875"
          y="0.82959"
          width="919.409"
          height="150.25"
          filterUnits="userSpaceOnUse"
          color-interpolation-filters="sRGB"
        >
          <feFlood flood-opacity="0" result="BackgroundImageFix" />
          <feColorMatrix
            in="SourceAlpha"
            type="matrix"
            values="0 0 0 0 0 0 0 0 0 0 0 0 0 0 0 0 0 0 127 0"
            result="hardAlpha"
          />
          <feOffset dy="4" />
          <feGaussianBlur stdDeviation="2" />
          <feComposite in2="hardAlpha" operator="out" />
          <feColorMatrix
            type="matrix"
            values="0 0 0 0 0 0 0 0 0 0 0 0 0 0 0 0 0 0 0.25 0"
          />
          <feBlend
            mode="normal"
            in2="BackgroundImageFix"
            result="effect1_dropShadow_83_992"
          />
          <feBlend
            mode="normal"
            in="SourceGraphic"
            in2="effect1_dropShadow_83_992"
            result="shape"
          />
        </filter>
      </defs>
</svg>