<svg width="283" height="506" viewBox="0 0 283 506" fill="none" xmlns="http://www.w3.org/2000/svg">
<rect x="7.5" y="7.5" width="268" height="491" rx="13.5" stroke="white" stroke-width="15"/>
<path d="M116 476H166" stroke="white" stroke-width="15" stroke-linecap="round"/>
<path d="M131 39H149.5" stroke="white" stroke-width="15" stroke-linecap="round"/>
<rect x="15" y="440" width="253" height="15" fill="white"/>
<rect x="15" y="64" width="253" height="15" fill="white"/>
<path d="M163.2 308C182.22 308 195 325.694 195 342.2C195 375.628 141.96 403 141 403C140.04 403 87 375.628 87 342.2C87 325.694 99.78 308 118.8 308C129.72 308 136.86 313.403 141 318.153C145.14 313.403 152.28 308 163.2 308Z" stroke="white" stroke-width="15" stroke-linecap="round" stroke-linejoin="round"/>
<path d="M200.324 200.675C201.492 203.807 204.478 205.881 207.819 205.881H242.999C247.414 205.881 250.999 202.3 250.999 197.881C250.999 193.469 247.414 189.881 242.999 189.881H213.373L197.436 147.104C196.297 144.04 193.397 141.98 190.132 141.899C186.843 141.831 183.874 143.743 182.585 146.743L168.198 180.304L149.584 110.929C148.624 107.323 145.258 104.847 141.571 105.007C137.847 105.14 134.708 107.827 134.003 111.487L111.735 227.123L95.9512 164.708C95.0911 161.316 92.1328 158.876 88.64 158.679C85.1248 158.529 81.931 160.589 80.7031 163.86L69.2356 194.441H38.9991C34.5794 194.441 31 198.022 31 202.441C31 206.856 34.5794 210.441 38.9991 210.441H74.7752C78.1106 210.441 81.0949 208.37 82.2673 205.245L86.7033 193.413L105.027 265.897C105.93 269.46 109.132 271.941 112.779 271.941C112.858 271.941 112.935 271.941 113.015 271.937C116.763 271.826 119.931 269.131 120.64 265.452L143.136 148.648L158.734 206.745C159.616 210.038 162.483 212.409 165.891 212.654C169.234 212.875 172.468 210.959 173.807 207.827L189.414 171.41L200.324 200.675Z" fill="white"/>
</svg>
